<svg width="254" height="254" viewBox="0 0 254 254" fill="none" xmlns="http://www.w3.org/2000/svg">
<rect width="254" height="254" fill="#E5E5E5"/>
<g id="undraw_profile_pic_ic5t 1">
<g id="Group" opacity="0.5">
<path id="Vector" opacity="0.5" d="M127 254C197.14 254 254 197.14 254 127C254 56.8598 197.14 0 127 0C56.8598 0 0 56.8598 0 127C0 197.14 56.8598 254 127 254Z" fill="url(#paint0_linear)"/>
</g>
<path id="Vector_2" d="M127.247 250.51C195.908 250.51 251.569 194.849 251.569 126.189C251.569 57.5275 195.908 1.86679 127.247 1.86679C58.5865 1.86679 2.92574 57.5275 2.92574 126.189C2.92574 194.849 58.5865 250.51 127.247 250.51Z" fill="#F5F5F5"/>
<path id="Vector_3" d="M127.364 251.001C151.656 251.041 175.423 243.928 195.7 230.55C191.119 205.514 173.684 204.088 173.684 204.088H77.5428C77.5428 204.088 61.091 205.438 55.9528 228.469C76.8584 243.174 101.804 251.046 127.364 251.001V251.001Z" fill="#6C63FF"/>
<path id="Vector_4" d="M126.043 183.575C159.184 183.575 186.05 156.709 186.05 123.568C186.05 90.4277 159.184 63.5619 126.043 63.5619C92.9022 63.5619 66.0364 90.4277 66.0364 123.568C66.0364 156.709 92.9022 183.575 126.043 183.575Z" fill="#333333"/>
<path id="Vector_5" opacity="0.1" d="M106.676 173.55H145.126V204.31C145.126 209.407 143.101 214.296 139.498 217.901C135.894 221.506 131.006 223.533 125.908 223.535V223.535C120.81 223.535 115.92 221.509 112.314 217.904C108.709 214.298 106.684 209.409 106.684 204.31V173.55H106.676Z" fill="black"/>
<path id="Vector_6" d="M107.895 172.123H143.921C144.245 172.123 144.555 172.252 144.783 172.48C145.012 172.709 145.14 173.019 145.14 173.342V202.883C145.141 205.409 144.644 207.91 143.677 210.243C142.711 212.577 141.294 214.697 139.508 216.482C137.722 218.268 135.602 219.684 133.268 220.65C130.935 221.616 128.434 222.113 125.908 222.112V222.112C120.81 222.112 115.92 220.086 112.314 216.481C108.709 212.876 106.684 207.986 106.684 202.887V173.342C106.684 173.02 106.811 172.711 107.038 172.483C107.265 172.254 107.573 172.125 107.895 172.123V172.123Z" fill="#786156"/>
<path id="Vector_7" opacity="0.1" d="M106.746 188.069C119.137 192.699 132.778 192.736 145.195 188.175V183.444H106.746V188.069Z" fill="black"/>
<path id="Vector_8" d="M126.043 190.642C156.481 190.642 181.155 165.967 181.155 135.53C181.155 105.092 156.481 80.4176 126.043 80.4176C95.6053 80.4176 70.9308 105.092 70.9308 135.53C70.9308 165.967 95.6053 190.642 126.043 190.642Z" fill="#786156"/>
<path id="Vector_9" opacity="0.1" d="M86.7858 85.3993C86.7858 85.3993 110.013 132.546 175.533 105.166L160.278 81.2472L133.237 71.5421L86.7858 85.3993Z" fill="black"/>
<path id="Vector_10" d="M86.7858 84.7079C86.7858 84.7079 110.013 131.854 175.533 104.468L160.278 80.5486L133.237 70.8434L86.7858 84.7079Z" fill="#333333"/>
<path id="Vector_11" d="M86.582 81.5129C88.1481 76.6648 90.8549 72.2633 94.4749 68.6783C105.315 57.9615 123.088 55.7017 132.204 43.482C134.387 46.8735 132.699 52.0882 128.929 53.5438C137.662 53.4855 147.782 52.7214 152.72 45.538C153.941 48.3791 154.33 51.5081 153.842 54.5615C153.354 57.6149 152.01 60.4671 149.966 62.7868C157.706 63.1507 165.977 68.3908 166.465 76.1236C166.799 81.2764 163.553 86.1526 159.336 89.1074C155.118 92.0623 149.98 93.4196 144.94 94.5295C130.224 97.7791 76.9787 111.378 86.582 81.5129Z" fill="#333333"/>
<path id="Vector_12" d="M70.9089 145.093C73.7407 145.093 76.0362 140.789 76.0362 135.479C76.0362 130.169 73.7407 125.865 70.9089 125.865C68.0772 125.865 65.7816 130.169 65.7816 135.479C65.7816 140.789 68.0772 145.093 70.9089 145.093Z" fill="#786156"/>
<path id="Vector_13" d="M181.148 145.093C183.98 145.093 186.275 140.789 186.275 135.479C186.275 130.169 183.98 125.865 181.148 125.865C178.316 125.865 176.021 130.169 176.021 135.479C176.021 140.789 178.316 145.093 181.148 145.093Z" fill="#786156"/>
</g>
<defs>
<linearGradient id="paint0_linear" x1="127" y1="254" x2="127" y2="0" gradientUnits="userSpaceOnUse">
<stop stop-color="#808080" stop-opacity="0.25"/>
<stop offset="0.54" stop-color="#808080" stop-opacity="0.12"/>
<stop offset="1" stop-color="#808080" stop-opacity="0.1"/>
</linearGradient>
</defs>
</svg>
